<svg preserveAspectRatio="none" width="100%" height="100%" overflow="visible" style="display: block;" viewBox="0 0 60 60" fill="none" xmlns="http://www.w3.org/2000/svg">
<g id="Group">
<path id="Vector" d="M22.7266 59.938C17.9122 59.0573 14.8319 57.8917 11.6741 55.7936C-2.01871 46.676 -4.0118 27.5083 7.53258 15.9558C15.3237 8.15923 26.7646 6.13885 36.7818 10.8272L39.3185 11.9928L45.0648 6.32017C51.0958 0.33673 51.5617 0 53.7878 0C56.9974 0 60 3.00467 60 6.21656C60 8.44416 59.6635 8.9104 53.736 14.9197C50.6299 18.0539 48.0932 20.696 48.0932 20.7737C48.0932 20.8514 48.6109 22.017 49.258 23.3639C51.0182 27.0938 51.5617 29.6582 51.5617 34.1911C51.5617 38.6981 51.0182 41.2883 49.2839 44.9664C47.0837 49.6289 44.0294 53.1775 39.9656 55.8195C35.7464 58.5911 31.7861 59.8085 26.6093 59.9639C24.8233 60.0157 23.089 60.0157 22.7266 59.938ZM29.9742 57.6068C38.4902 56.0008 45.3495 50.2246 48.1709 42.2985C51.7429 32.352 48.5333 21.6025 40.0691 15.1529C31.7344 8.80679 19.9053 8.80679 11.5964 15.1788C7.79143 18.0798 4.99592 21.8357 3.49464 26.0836C-0.465657 37.1439 3.98644 49.059 14.2625 54.9906C18.6369 57.555 24.9009 58.5911 29.9742 57.6068ZM48.3521 17.4841L49.7757 16.0594L46.8508 13.1325L43.9518 10.2314L42.4763 11.7079C41.6739 12.5367 41.0527 13.2361 41.1045 13.262C42.1657 14.0132 44.8836 16.6034 45.6601 17.6136C46.2037 18.3129 46.7214 18.9087 46.799 18.9087C46.8767 18.9087 47.5755 18.2611 48.3521 17.4841ZM54.4866 11.3452C57.8516 7.92611 58.1881 7.30446 57.7998 5.25817C57.5669 3.98896 56.0138 2.43482 54.7455 2.2017C52.6747 1.81316 52.0794 2.14989 48.6109 5.5949L45.3754 8.80679L48.2227 11.656C49.7757 13.2102 51.1217 14.5053 51.1993 14.5053C51.277 14.5053 52.7783 13.0807 54.4866 11.3452Z" fill="var(--fill-0, white)"/>
<path id="Vector_2" d="M22.2609 55.6641C17.8088 54.9129 14.0038 52.8926 10.5612 49.4735C7.84334 46.7537 6.36794 44.4484 5.2808 41.1847C3.26183 35.1236 3.85717 28.9588 7.01505 23.3121C8.49045 20.696 12.3213 16.8365 14.9615 15.3601C21.8467 11.5006 29.7932 11.5006 36.7043 15.3601C39.3186 16.8365 43.1754 20.6701 44.6508 23.3121C48.5075 30.2021 48.5075 38.18 44.6508 45.0701C43.1754 47.7121 39.3186 51.5456 36.7043 53.0221C32.2781 55.5087 27.0236 56.4671 22.2609 55.6641ZM30.8803 53.2293C37.5585 51.4161 43.0201 45.9248 44.8837 39.1125C45.5308 36.7813 45.5308 31.6008 44.9096 29.2696C43.046 22.4573 37.5326 16.9401 30.7509 15.127C28.3955 14.4794 23.2186 14.4794 20.9149 15.1011C15.3757 16.6293 10.5612 20.6442 8.10219 25.7469C6.9374 28.2335 6.41971 30.228 6.23852 33.155C5.64318 42.7129 12.2437 51.3125 21.8467 53.4624C24.0469 53.9546 28.6284 53.8509 30.8803 53.2293Z" fill="var(--fill-0, white)"/>
<path id="Vector_3" d="M24.668 49.4994C24.3833 49.3698 23.8915 49.0072 23.6067 48.6705C22.8043 47.7898 12.2176 29.2696 12.0106 28.4408C11.7776 27.4306 12.4506 26.0059 13.4601 25.3843C14.2884 24.8921 14.7284 24.8662 25.8328 24.8662C36.7818 24.8662 37.403 24.8921 38.1796 25.3843C39.1891 26.0059 39.6291 26.7571 39.6291 28.0004C39.6291 28.7516 38.542 30.8238 34.0122 38.6463C30.932 43.9822 28.1365 48.6187 27.8 48.9295C27.127 49.5771 25.4963 49.862 24.668 49.4994ZM26.5575 47.3495C26.8681 46.935 37.4548 28.5703 37.636 28.104C37.7137 27.9227 37.5842 27.586 37.3513 27.3529C36.963 26.9902 35.7465 26.9384 25.8328 26.9384C15.9191 26.9384 14.7025 26.9902 14.3143 27.3529C14.0813 27.586 13.9519 27.9486 14.0295 28.1299C14.2107 28.5962 24.7974 46.935 25.108 47.3495C25.2633 47.5049 25.5739 47.6603 25.8328 47.6603C26.0916 47.6603 26.4022 47.5049 26.5575 47.3495Z" fill="var(--fill-0, white)"/>
<path id="Vector_4" d="M25.082 42.1172C24.8749 41.8841 24.7973 40.7444 24.849 38.724C24.9267 36.1597 25.0043 35.6157 25.3926 35.3826C25.7032 35.1754 25.9621 35.1754 26.2985 35.3826C26.6609 35.6157 26.7386 36.1597 26.8162 38.724C26.8939 41.8582 26.7386 42.4798 25.8326 42.4798C25.5738 42.4798 25.2373 42.3244 25.082 42.1172Z" fill="var(--fill-0, white)"/>
<path id="Vector_5" d="M24.6681 32.2484C24.3057 31.9117 24.021 31.3936 24.021 31.0828C24.021 30.7979 24.3057 30.2539 24.6681 29.9172C25.0046 29.5546 25.5482 29.2696 25.8329 29.2696C26.5318 29.2696 27.6448 30.3834 27.6448 31.0828C27.6448 31.3936 27.3601 31.9117 26.9977 32.2484C26.6612 32.611 26.1435 32.896 25.8329 32.896C25.5482 32.896 25.0046 32.611 24.6681 32.2484Z" fill="var(--fill-0, white)"/>
</g>
</svg>
