<svg preserveAspectRatio="none" width="100%" height="100%" overflow="visible" style="display: block;" viewBox="0 0 60 60" fill="none" xmlns="http://www.w3.org/2000/svg">
<g id="Group">
<path id="Vector" d="M28.3223 59.7982C19.7986 58.5109 12.5158 53.4482 8.05162 45.6952C7.18846 44.1909 5.90722 41.2401 5.44867 39.7358C5.24637 39.027 5.03058 38.4629 4.97663 38.4629C4.93617 38.4629 4.599 38.9547 4.22137 39.5477L3.56052 40.6181L1.78026 39.3597C0.809208 38.6654 0 38.0723 0 38.0289C0 37.7975 4.57203 30.6953 4.88222 30.4639C5.39472 30.0589 6.44669 29.9721 7.02662 30.2903C7.47169 30.5507 13.4329 34.7599 13.6756 35.0058C13.7565 35.0781 13.325 35.9026 12.6371 37.0164C11.3019 39.1572 11.5447 39.0559 10.0881 38C9.65655 37.6962 9.30589 37.4648 9.30589 37.4937C9.30589 37.8264 10.169 40.0829 10.8569 41.5728C15.0917 50.671 24.3437 56.2689 33.7575 55.4154C38.0193 55.0249 41.7147 53.6508 45.2617 51.1194C46.8666 49.9623 49.1189 47.7781 50.3462 46.1725C56.1725 38.4773 57.3459 27.9326 53.3403 18.9934C50.3058 12.224 44.5334 7.19028 37.6956 5.36774C35.5647 4.78915 34.6476 4.6879 31.8963 4.6879C29.644 4.70236 28.9427 4.76022 27.6479 5.03505C23.8581 5.84507 20.6348 7.37833 17.6407 9.79392C16.4404 10.7631 14.35 12.9472 13.325 14.2924L12.8394 14.9289L11.1401 13.5981C10.2095 12.8604 9.44076 12.2095 9.44076 12.1517C9.44076 11.9492 12.1651 8.69461 13.0417 7.85566C19.9065 1.30317 28.8483 -1.3294 37.6686 0.637797C50.2518 3.42947 59.3959 15.0012 59.9758 28.8439C60.259 35.8882 58.0472 43.0771 53.8393 48.7906C53.4347 49.3548 52.4502 50.4975 51.6679 51.3364C47.2038 56.0953 41.4989 59.0316 35.0657 59.8706C33.5147 60.0731 29.8867 60.0297 28.3223 59.7982Z" fill="var(--fill-0, white)"/>
<path id="Vector_2" d="M29.8057 37.9565C29.8057 31.1437 29.8461 29.5525 29.9945 29.162C30.1024 28.9016 31.6938 27.0791 33.5415 25.1119L36.8997 21.5247L38.4102 23.1592L39.9343 24.7792L37.0211 27.9036L34.1214 31.0135V38.6508V46.2737H31.9636H29.8057V37.9565Z" fill="var(--fill-0, white)"/>
</g>
</svg>
