<svg preserveAspectRatio="none" width="100%" height="100%" overflow="visible" style="display: block;" viewBox="0 0 60 60" fill="none" xmlns="http://www.w3.org/2000/svg">
<g id="Group">
<path id="Vector" d="M26.25 59.2192C25.5 58.8075 24 57.7096 22.9773 56.6803C21.3409 55.1706 20.3182 54.8275 15.4773 54.5531L9.88636 54.21L9.68182 49.6124L9.47727 44.9462L4.70455 40.6918L0 36.4373L0.136364 18.1844L0.340909 0H30H59.6591L59.8636 18.253L60 36.5059L55.2955 40.7604L50.5227 45.0148L50.3182 49.6124L50.1136 54.21L44.5227 54.5531C39.6818 54.8275 38.6591 55.1706 37.0227 56.6803C36 57.7096 34.4318 58.8761 33.6136 59.2878C31.7727 60.2485 28.0227 60.2485 26.25 59.2192ZM33.75 55.9255L35.7955 54.5531H30.3409L24.8864 54.6217L26.5227 55.9255C28.5682 57.641 31.1591 57.641 33.75 55.9255ZM47.6591 39.6625V27.4481L43.0227 23.8798L38.3864 20.3116L35.8636 22.0271C31.4318 25.115 28.5 24.9777 23.1818 21.4781C21.4773 20.3116 21.4091 20.3802 16.9091 24.0857L12.2727 27.8598V39.8683V51.8082H30H47.7273L47.6591 39.6625ZM9.54545 35.6825C9.54545 32.8691 9.34091 30.536 9.06818 30.536C8.72727 30.536 7.29545 31.6339 5.79545 32.9377L3.06818 35.3394L6.06818 38.0842C7.70455 39.5938 9.13636 40.829 9.27273 40.829C9.40909 40.829 9.54545 38.4959 9.54545 35.6825ZM54.9545 37.2608L57.1364 34.9963L53.7955 32.3887L50.4545 29.8498V35.3394C50.4545 41.5838 50.7955 41.7211 54.9545 37.2608ZM11.4545 25.0464C15.6136 21.8212 19.0227 19.0764 19.0227 18.8706C19.0909 18.5961 12.9545 14.4102 4.70455 9.05787L2.72727 7.75408V19.5568C2.72727 26.0071 3 31.2222 3.34091 31.0849C3.68182 31.0163 7.29545 28.2715 11.4545 25.0464ZM57.2727 19.4881V7.75408L55.4318 8.98924C54.3409 9.60683 50.6591 12.0772 47.1818 14.4102L40.8409 18.6647L48.5455 24.9091C52.7727 28.3401 56.4545 31.1536 56.7955 31.1536C57.0682 31.2222 57.2727 25.9384 57.2727 19.4881ZM44.5227 13.0378C51.5455 8.30304 57.2727 3.97997 57.2727 3.43101C57.2727 2.53895 53.7273 2.40171 30 2.40171C6.27273 2.40171 2.72727 2.53895 2.72727 3.43101C2.72727 4.87203 27.8182 21.6154 30 21.6154C31.0227 21.6154 36.6136 18.3216 44.5227 13.0378Z" fill="var(--fill-0, white)"/>
<path id="Vector_2" d="M25.5 48.1028C24.3409 47.5538 22.5 45.9755 21.4091 44.5345C19.7727 42.4073 19.4318 41.3094 19.4318 38.0842C19.4318 31.2908 24.0682 27.105 31.6364 27.105C34.9091 27.105 35.4545 27.3108 35.4545 28.4088C35.4545 29.5067 34.8409 29.7125 31.0227 29.987C27.0682 30.1929 26.3182 30.536 24.3409 32.4574C22.5 34.3787 22.1591 35.1335 22.1591 38.0842C22.1591 41.0349 22.5 41.7897 24.4091 43.7111C26.3182 45.6324 27.0682 45.9755 30 45.9755C32.8636 45.9755 33.6818 45.6324 35.5227 43.7797C37.2955 42.0642 37.7045 41.0349 37.7727 38.6332C37.8409 34.6532 36 34.4473 35.3864 38.3587C34.6364 43.0935 30 45.1521 26.5227 42.27C25.2955 41.3094 24.8864 40.2801 24.8864 38.0842C24.8864 35.8884 25.2955 34.8591 26.5227 33.8984C28.1591 32.526 31.0909 32.1829 32.6591 33.2122C33.1364 33.5553 34.3636 33.4867 35.4545 33.0749C36.9545 32.4574 37.7045 32.5946 39.2045 33.5553C40.9091 34.7218 41.0455 35.0649 40.7727 38.4959C40.2955 44.4659 36.5455 48.3772 30.8864 48.8576C28.9773 48.9948 26.7273 48.6517 25.5 48.1028ZM32.0455 39.7997C33.8182 37.6039 31.1591 34.2415 28.8409 35.7511C26.4545 37.2608 27.2727 40.829 30 40.829C30.6818 40.829 31.5682 40.3487 32.0455 39.7997Z" fill="var(--fill-0, white)"/>
</g>
</svg>
