<svg preserveAspectRatio="none" width="100%" height="100%" overflow="visible" style="display: block;" viewBox="0 0 60 60" fill="none" xmlns="http://www.w3.org/2000/svg">
<g id="Icon/Outline/mail-open">
<path id="Icon" d="M7.5 47.5V25.1759C7.5 23.5042 8.33551 21.943 9.7265 21.0157L27.2265 9.349C28.906 8.22934 31.094 8.22934 32.7735 9.349L50.2735 21.0157C51.6645 21.943 52.5 23.5042 52.5 25.1759V47.5M7.5 47.5C7.5 50.2614 9.73858 52.5 12.5 52.5H47.5C50.2614 52.5 52.5 50.2614 52.5 47.5M7.5 47.5L24.375 36.25M52.5 47.5L35.625 36.25M7.5 25L24.375 36.25M24.375 36.25L27.2265 38.151C28.906 39.2707 31.094 39.2707 32.7735 38.151L35.625 36.25L52.5 25" stroke="var(--stroke-0, black)" stroke-width="4" stroke-linecap="round" stroke-linejoin="round"/>
</g>
</svg>
