<svg preserveAspectRatio="none" width="100%" height="100%" overflow="visible" style="display: block;" viewBox="0 0 100 100" fill="none" xmlns="http://www.w3.org/2000/svg">
<g id="roentgen:two-people-together">
<rect x="0.5" y="0.5" width="99" height="99" rx="19.5" fill="var(--fill-0, #3642BB)"/>
<rect x="0.5" y="0.5" width="99" height="99" rx="19.5" stroke="var(--stroke-0, white)"/>
<path id="Vector" d="M34.375 21.875C32.7174 21.875 31.1277 22.5335 29.9556 23.7056C28.7835 24.8777 28.125 26.4674 28.125 28.125C28.125 29.7826 28.7835 31.3723 29.9556 32.5444C31.1277 33.7165 32.7174 34.375 34.375 34.375C36.0326 34.375 37.6223 33.7165 38.7944 32.5444C39.9665 31.3723 40.625 29.7826 40.625 28.125C40.625 26.4674 39.9665 24.8777 38.7944 23.7056C37.6223 22.5335 36.0326 21.875 34.375 21.875ZM65.625 21.875C63.9674 21.875 62.3777 22.5335 61.2056 23.7056C60.0335 24.8777 59.375 26.4674 59.375 28.125C59.375 29.7826 60.0335 31.3723 61.2056 32.5444C62.3777 33.7165 63.9674 34.375 65.625 34.375C67.2826 34.375 68.8723 33.7165 70.0444 32.5444C71.2165 31.3723 71.875 29.7826 71.875 28.125C71.875 26.4674 71.2165 24.8777 70.0444 23.7056C68.8723 22.5335 67.2826 21.875 65.625 21.875ZM15.625 37.5C14.7962 37.5 14.0013 37.8292 13.4153 38.4153C12.8292 39.0013 12.5 39.7962 12.5 40.625C12.5 41.4538 12.8292 42.2487 13.4153 42.8347C14.0013 43.4208 14.7962 43.75 15.625 43.75H21.875C23.6063 43.75 25 45.1437 25 46.875V71.875C25 72.7038 25.3292 73.4987 25.9153 74.0847C26.5013 74.6708 27.2962 75 28.125 75C28.9538 75 29.7487 74.6708 30.3347 74.0847C30.9208 73.4987 31.25 72.7038 31.25 71.875V59.375C31.25 58.5462 31.5792 57.7513 32.1653 57.1653C32.7513 56.5792 33.5462 56.25 34.375 56.25C35.2038 56.25 35.9987 56.5792 36.5847 57.1653C37.1708 57.7513 37.5 58.5462 37.5 59.375V71.875C37.5 72.7038 37.8292 73.4987 38.4153 74.0847C39.0013 74.6708 39.7962 75 40.625 75C41.4538 75 42.2487 74.6708 42.8347 74.0847C43.4208 73.4987 43.75 72.7038 43.75 71.875V46.875C43.75 45.1437 45.1437 43.75 46.875 43.75H53.125C54.8563 43.75 56.25 45.1437 56.25 46.875V71.875C56.25 72.7038 56.5792 73.4987 57.1653 74.0847C57.7513 74.6708 58.5462 75 59.375 75C60.2038 75 60.9987 74.6708 61.5847 74.0847C62.1708 73.4987 62.5 72.7038 62.5 71.875V59.375C62.5 58.5462 62.8292 57.7513 63.4153 57.1653C64.0013 56.5792 64.7962 56.25 65.625 56.25C66.4538 56.25 67.2487 56.5792 67.8347 57.1653C68.4208 57.7513 68.75 58.5462 68.75 59.375V71.875C68.75 72.7038 69.0792 73.4987 69.6653 74.0847C70.2513 74.6708 71.0462 75 71.875 75C72.7038 75 73.4987 74.6708 74.0847 74.0847C74.6708 73.4987 75 72.7038 75 71.875V46.875C75 45.1437 76.3937 43.75 78.125 43.75H84.375C85.2038 43.75 85.9987 43.4208 86.5847 42.8347C87.1708 42.2487 87.5 41.4538 87.5 40.625C87.5 39.7962 87.1708 39.0013 86.5847 38.4153C85.9987 37.8292 85.2038 37.5 84.375 37.5H15.625Z" fill="var(--fill-0, white)"/>
</g>
</svg>
