<svg preserveAspectRatio="none" width="100%" height="100%" overflow="visible" style="display: block;" viewBox="0 0 60 60" fill="none" xmlns="http://www.w3.org/2000/svg">
<g id="Icon/Solid/user-group">
<path id="Icon" d="M48.002 37.5C52.1432 37.5011 55.5 40.8585 55.5 45V52.5H49.5V45C49.5 42.3438 48.9655 39.8103 48.002 37.5ZM30 34.5C35.799 34.5 40.5 39.201 40.5 45V52.5H19.5V45C19.5 39.201 24.201 34.5 30 34.5ZM11.9971 37.5C11.0336 39.8102 10.5 42.344 10.5 45V52.5H4.5V45C4.5 40.8588 7.85628 37.5016 11.9971 37.5ZM12 19.5C14.4853 19.5 16.5 21.5147 16.5 24C16.5 26.4853 14.4853 28.5 12 28.5C9.51472 28.5 7.5 26.4853 7.5 24C7.5 21.5147 9.51472 19.5 12 19.5ZM48 19.5C50.4853 19.5 52.5 21.5147 52.5 24C52.5 26.4853 50.4853 28.5 48 28.5C45.5147 28.5 43.5 26.4853 43.5 24C43.5 21.5147 45.5147 19.5 48 19.5ZM30 10.5C34.1421 10.5 37.5 13.8579 37.5 18C37.5 22.1421 34.1421 25.5 30 25.5C25.8579 25.5 22.5 22.1421 22.5 18C22.5 13.8579 25.8579 10.5 30 10.5Z" fill="var(--fill-0, white)" stroke="var(--stroke-0, black)" stroke-width="3"/>
</g>
</svg>
